<svg xmlns="http://www.w3.org/2000/svg" xmlns:osb="http://www.openswatchbook.org/uri/2009/osb" xmlns:svg="http://www.w3.org/2000/svg" xmlns:xlink="http://www.w3.org/1999/xlink" id="Ebene_1" width="67.5" height="79.227" x="0" y="0" version="1.2" viewBox="0 0 67.5 79.227" xml:space="preserve"><metadata id="metadata106"/><defs id="defs104"><linearGradient id="linearGradient4303" osb:paint="solid"><stop id="stop4305" offset="0" style="stop-color:#000;stop-opacity:1"/></linearGradient></defs><path id="rect4315" d="m 0.19598132,0.1706264 0,67.1341796 67.13303768,0 0,-67.1341796 -67.13303768,0 z M 63.323394,2.5412806 c 1.012001,0 1.83203,0.9073345 1.83203,2.0270812 0,1.1197467 -0.820029,2.0270811 -1.83203,2.0270811 -1.012003,0 -1.83203,-0.9073344 -1.83203,-2.0270811 0,-1.1197467 0.820027,-2.0270812 1.83203,-2.0270812 z" style="fill:#1f7a34;fill-opacity:1;fill-rule:nonzero;stroke:#1f7a34;stroke-width:.36582038;stroke-linecap:butt;stroke-linejoin:miter;stroke-miterlimit:25;stroke-opacity:1;stroke-dasharray:none;stroke-dashoffset:0"/><g id="g4378" transform="matrix(0.9938934,0,0,1.0000304,4.7274866,6.2488944)"><circle style="fill:none" id="connector1pin" cx="19.254" cy="61.906" r="2.052" d="m 21.306,61.905998 c 0,1.133289 -0.918712,2.052 -2.052,2.052 -1.133289,0 -2.052,-0.918711 -2.052,-2.052 0,-1.133288 0.918711,-2.052 2.052,-2.052 1.133288,0 2.052,0.918712 2.052,2.052 z" transform="translate(2.727159,9.0180978)"/><circle style="fill:none" id="connector3pin" cx="26.454" cy="61.905" r="2.053" d="m 28.507,61.904999 c 0,1.13384 -0.919159,2.053 -2.053,2.053 -1.13384,0 -2.053,-0.91916 -2.053,-2.053 0,-1.133841 0.91916,-2.053 2.053,-2.053 1.133841,0 2.053,0.919159 2.053,2.053 z" transform="translate(2.727159,9.0180978)"/><circle style="fill:none" id="connector0pin" cx="33.654" cy="61.906" r="2.052" d="m 35.705999,61.905998 c 0,1.133289 -0.918711,2.052 -2.052,2.052 -1.133288,0 -2.052,-0.918711 -2.052,-2.052 0,-1.133288 0.918712,-2.052 2.052,-2.052 1.133289,0 2.052,0.918712 2.052,2.052 z" transform="translate(2.727159,9.0180978)"/><polygon id="polygon72" points="34.804 50.188 34.804 61.61 34.246 63.957 33.064 63.957 32.508 61.61 32.508 50.188" transform="translate(2.727159,9.0180978)" style="fill:#b8af82"/><polygon id="polygon74" points="33.064 63.957 34.246 63.957 34.402 63.3 32.908 63.3" transform="translate(2.727159,9.0180978)" style="fill:#e2d6a1"/><polygon id="polygon78" points="27.603 50.188 27.603 61.61 27.047 63.957 25.865 63.957 25.306 61.61 25.306 50.188" transform="translate(2.727159,9.0180978)" style="fill:#b8af82"/><polygon id="polygon80" points="25.865 63.957 27.047 63.957 27.203 63.3 25.709 63.3" transform="translate(2.727159,9.0180978)" style="fill:#e2d6a1"/><polygon id="polygon84" points="20.406 50.188 20.406 61.61 19.845 63.957 18.666 63.957 18.108 61.61 18.108 50.188" transform="translate(2.727159,9.0180978)" style="fill:#b8af82"/><polygon id="polygon86" points="18.666 63.957 19.845 63.957 20.004 63.3 18.51 63.3" transform="translate(2.727159,9.0180978)" style="fill:#e2d6a1"/><circle style="fill:#ccc" id="circle96" cx="19.256" cy="50.187" r="2.052" d="m 21.308001,50.187 c 0,1.133289 -0.918712,2.052 -2.052,2.052 -1.133289,0 -2.052001,-0.918711 -2.052001,-2.052 0,-1.133288 0.918712,-2.052 2.052001,-2.052 1.133288,0 2.052,0.918712 2.052,2.052 z" transform="translate(2.727159,9.0180978)"/><circle style="fill:#ccc" id="circle98" cx="26.456" cy="50.187" r="2.052" d="m 28.507999,50.187 c 0,1.133289 -0.918711,2.052 -2.052,2.052 -1.133288,0 -2.052,-0.918711 -2.052,-2.052 0,-1.133288 0.918712,-2.052 2.052,-2.052 1.133289,0 2.052,0.918712 2.052,2.052 z" transform="translate(2.727159,9.0180978)"/><circle style="fill:#ccc" id="circle100" cx="33.656" cy="50.187" r="2.052" d="m 35.707998,50.187 c 0,1.133289 -0.918711,2.052 -2.052,2.052 -1.133288,0 -2.052,-0.918711 -2.052,-2.052 0,-1.133288 0.918712,-2.052 2.052,-2.052 1.133289,0 2.052,0.918712 2.052,2.052 z" transform="translate(2.727159,9.0180978)"/></g><path id="path4016" d="m 37.893161,34.866634 a 13.707564,13.707564 0 1 1 -27.415129,0 13.707564,13.707564 0 1 1 27.415129,0 z" transform="matrix(0.9938934,0,0,1.0000304,-3.0936,2.2298007)" style="fill:#969696;fill-opacity:1;stroke:#828282;stroke-width:2;stroke-miterlimit:4;stroke-opacity:1;stroke-dasharray:none"/><text id="text4018" x="25.509" y="27.674" transform="scale(0.81281787,1.2302879)" xml:space="preserve" style="font-size:7.43198013px;font-style:normal;font-weight:400;line-height:125%;letter-spacing:0;word-spacing:0;fill:#9b9b9b;fill-opacity:1;stroke:#828282;stroke-width:.2492393;stroke-miterlimit:4;stroke-opacity:1;stroke-dasharray:none;font-family:anime ace;-inkscape-font-specification:anime ace"><tspan style="font-style:normal;font-variant:normal;font-weight:400;font-stretch:normal;text-align:center;text-anchor:middle;fill:none;stroke:#7b7a7a;stroke-width:.2492393;stroke-miterlimit:4;stroke-opacity:1;stroke-dasharray:none;font-family:Times New Roman;-inkscape-font-specification:Times New Roman" id="tspan4020" x="25.509" y="27.674">LR1</tspan><tspan style="font-style:normal;font-variant:normal;font-weight:400;font-stretch:normal;text-align:center;text-anchor:middle;fill:none;stroke:#7b7a7a;stroke-width:.2492393;stroke-miterlimit:4;stroke-opacity:1;stroke-dasharray:none;font-family:Times New Roman;-inkscape-font-specification:Times New Roman" id="tspan4022" x="25.509" y="36.964">315.00</tspan></text><g id="g4255" transform="matrix(0.9938934,0,0,1.0000304,0.18753864,6.2488944)"><rect style="fill:#cd371e;fill-opacity:1;stroke:#fe371e;stroke-width:.22107275;stroke-linecap:round;stroke-linejoin:round;stroke-miterlimit:25;stroke-opacity:1;stroke-dasharray:none;stroke-dashoffset:0" id="rect4142" width="3.279" height="20.279" x="38.857" y="31.679" rx="1.649" ry="1.699"/><use id="use4192" width="67.5" height="72.975" x="0" y="0" xlink:href="#rect4142"/><use id="use4194" width="67.5" height="72.975" x="0" y="0" transform="translate(3.2789273,0)" xlink:href="#rect4142"/><use id="use4196" width="67.5" height="72.975" x="0" y="0" transform="translate(6.5578546,0)" xlink:href="#rect4142"/><use id="use4198" width="67.5" height="72.975" x="0" y="0" transform="translate(9.8367819,0)" xlink:href="#rect4142"/><use id="use4200" width="67.5" height="72.975" x="0" y="0" transform="translate(13.115709,0)" xlink:href="#rect4142"/><use id="use4202" width="67.5" height="72.975" x="0" y="0" transform="translate(16.394637,0)" xlink:href="#rect4142"/><use id="use4204" width="67.5" height="72.975" x="0" y="0" transform="translate(19.673564,0)" xlink:href="#rect4142"/><use id="use4206" width="67.5" height="72.975" x="0" y="0" transform="translate(22.952491,0)" xlink:href="#rect4142"/></g><g id="g4296" transform="matrix(0.9938934,0,0,1.0000304,0.59048564,6.6543295)"><use id="use4278" width="67.5" height="72.975" x="0" y="0" xlink:href="#rect4266"/><rect style="fill:#cd371e;fill-opacity:1;stroke:#fe371e;stroke-width:.34999999;stroke-linecap:round;stroke-linejoin:round;stroke-miterlimit:25;stroke-opacity:1;stroke-dasharray:none;stroke-dashoffset:0" id="rect4266" width="20.5" height="3.5" x="45.025" y="10.483" rx="1.68" ry="1.68" transform="matrix(0.99567106,0.09294701,-0.09294701,0.99567106,0,0)"/><use id="use4280" width="67.5" height="72.975" x="0" y="0" transform="translate(-0.32531453,3.4848487)" xlink:href="#rect4266"/><use id="use4282" width="67.5" height="72.975" x="0" y="0" transform="translate(-0.65062907,6.9696974)" xlink:href="#rect4266"/><use id="use4284" width="67.5" height="72.975" x="0" y="0" transform="translate(-0.9759436,10.454546)" xlink:href="#rect4266"/></g><path id="path4339" d="m 67.263531,3.1483033 a 1.3258252,1.3258252 0 1 1 -2.65165,0 1.3258252,1.3258252 0 1 1 2.65165,0 z" transform="matrix(1.3524463,0,0,1.3607972,-25.856612,0.1991687)" style="fill:none;stroke:#7b7a7a;stroke-width:.2144036;stroke-linecap:butt;stroke-linejoin:miter;stroke-miterlimit:25;stroke-opacity:1;stroke-dasharray:none;stroke-dashoffset:0"/><text id="text4366" x="53.827" y="5.618" transform="scale(0.99692688,1.0030826)" xml:space="preserve" style="font-size:3.98782873px;font-style:normal;font-weight:400;line-height:125%;letter-spacing:0;word-spacing:0;fill:#000;fill-opacity:1;stroke:none;font-family:anime ace;-inkscape-font-specification:anime ace"><tspan style="font-style:normal;font-variant:normal;font-weight:400;font-stretch:normal;fill:#fff;fill-opacity:1;font-family:Arial Narrow;-inkscape-font-specification:Arial Narrow" id="tspan4368" x="53.827" y="5.618">ANT</tspan></text><text id="text4374" x="-48.137" y="5.559" transform="matrix(0,-1.0030826,0.99692688,0,0,0)" xml:space="preserve" style="font-size:6.941957px;font-style:normal;font-weight:400;line-height:125%;letter-spacing:0;word-spacing:0;writing-mode:lr-tb;fill:#fff;fill-opacity:1;stroke:none;font-family:anime ace;-inkscape-font-specification:anime ace"><tspan id="tspan4376" x="-48.137" y="5.559">XD-FST</tspan></text><text id="text4392" x="12.75" y="66.062" transform="scale(0.99692688,1.0030826)" xml:space="preserve" style="font-size:3.98782873px;font-style:normal;font-weight:400;line-height:125%;letter-spacing:0;word-spacing:0;writing-mode:lr-tb;fill:#000;fill-opacity:1;stroke:none;font-family:anime ace;-inkscape-font-specification:anime ace"><tspan style="fill:#fff;fill-opacity:1" id="tspan4394" x="12.75" y="66.062">DATA</tspan></text><text id="text4396" x="29.977" y="61.935" transform="scale(0.99692688,1.0030826)" xml:space="preserve" style="font-size:3.98782873px;font-style:normal;font-weight:400;line-height:125%;letter-spacing:0;word-spacing:0;writing-mode:lr-tb;fill:#000;fill-opacity:1;stroke:none;font-family:anime ace;-inkscape-font-specification:anime ace"><tspan style="fill:#fff;fill-opacity:1" id="tspan4398" x="29.977" y="61.935">VCC</tspan></text><text id="text4400" x="44.154" y="66.421" transform="scale(0.99692688,1.0030826)" xml:space="preserve" style="font-size:3.98782873px;font-style:normal;font-weight:400;line-height:125%;letter-spacing:0;word-spacing:0;writing-mode:lr-tb;fill:#000;fill-opacity:1;stroke:none;font-family:anime ace;-inkscape-font-specification:anime ace"><tspan style="fill:#fff;fill-opacity:1" id="tspan4402" x="44.154" y="66.421">GND</tspan></text><text id="text4404" x="8.27" y="13.995" transform="scale(0.99692688,1.0030826)" xml:space="preserve" style="font-size:6.09046698px;font-style:normal;font-weight:400;line-height:125%;letter-spacing:0;word-spacing:0;writing-mode:lr-tb;fill:#000;fill-opacity:1;stroke:none;font-family:anime ace;-inkscape-font-specification:anime ace"><tspan style="fill:#fff;fill-opacity:1" id="tspan4406" x="8.27" y="13.995">FS1000A</tspan></text></svg>